<?xml version="1.0" encoding="iso-8859-1"?>
<!-- Uploaded to: SVG Repo, www.svgrepo.com, Generator: SVG Repo Mixer Tools -->
<svg version="1.1" id="Layer_1" xmlns="http://www.w3.org/2000/svg" xmlns:xlink="http://www.w3.org/1999/xlink" 
	 viewBox="0 0 512 512" xml:space="preserve">
<g>
	<path style="fill:#68AEF4;" d="M475.049,336.437c-25.652-25.652-61.984-34.107-94.682-25.374l-20.437-20.437l-69.312,38.501
		l99.722,61.218l48.77-12.822l59.527,59.527C510.119,402.88,502.264,363.652,475.049,336.437z"/>
	<path style="fill:#68AEF4;" d="M200.938,131.633c8.733-32.698,0.278-69.031-25.374-94.682
		C148.348,9.735,109.119,1.881,74.951,13.363l59.527,59.527l-12.822,48.77l25.374,63.878l128.205,128.205l38.504-69.308
		L200.938,131.633z"/>
</g>
<path style="fill:#3891E9;" d="M418.471,480.097l-40.976-40.976l12.846-48.777l-65.064-65.064l34.654-34.654l-46.191-46.191
	l-46.205,46.206L154.732,177.838l11.559-11.554l-44.634-44.623L72.88,134.507L31.903,93.529L13.351,74.977
	C1.884,109.13,9.732,148.351,36.947,175.566c25.652,25.652,61.984,34.107,94.682,25.374l179.43,179.431
	c-8.733,32.698-0.278,69.031,25.374,94.682c27.215,27.215,66.435,35.063,100.588,23.596L418.471,480.097z"/>
<polygon style="fill:#554F4E;" points="77.497,434.504 77.497,480.678 8.238,503.765 "/>
<polygon style="fill:#7F7774;" points="31.324,434.504 71.726,428.733 65.954,469.135 8.238,503.765 "/>
<polygon style="fill:#FFAB97;" points="135.213,399.875 146.758,457.592 77.497,480.678 65.954,469.135 "/>
<polygon style="fill:#FFCDC1;" points="54.411,365.245 149.405,362.597 123.67,434.504 65.954,469.135 31.324,434.504 "/>
<polygon style="fill:#F5AC51;" points="401.894,125.499 417.285,187.063 146.758,457.592 123.67,434.504 "/>
<path style="fill:#E26142;" d="M386.504,125.499l61.564,30.782l46.173-46.173c12.697-12.697,12.697-33.476,0-46.173l-23.086-23.086
	L386.504,125.499z"/>
<polygon style="fill:#FFEAB2;" points="54.411,365.245 100.584,411.418 137.523,402.183 408.051,131.655 324.94,94.716 "/>
<rect x="242.608" y="68.549" transform="matrix(0.7071 0.7071 -0.7071 0.7071 271.1149 -102.2073)" style="fill:#FFD159;" width="32.649" height="415.225"/>
<path style="fill:#F1866D;" d="M448.068,17.762l23.086,23.086c12.697,12.697,12.697,33.476,0,46.173l-61.564,61.564l-53.869-84.651
	l46.173-46.173C414.592,5.064,435.37,5.064,448.068,17.762z"/>
<rect x="404.819" y="138.364" transform="matrix(0.7071 0.7071 -0.7071 0.7071 236.579 -250.8926)" style="fill:#D8D1D0;" width="32.649" height="43.532"/>
<rect x="325.984" y="92.193" transform="matrix(0.7071 0.7071 -0.7071 0.7071 190.4038 -231.7585)" style="fill:#FFFFFF;" width="97.95" height="43.532"/>
<path d="M480.831,330.665c-25.593-25.592-62.724-36.336-97.931-28.623l-34.521-34.521l105.458-105.459
	c0.011-0.011,46.179-46.179,46.179-46.179c7.683-7.683,11.914-17.934,11.914-28.861c0-10.929-4.232-21.179-11.914-28.862
	l-46.172-46.173c-7.684-7.683-17.935-11.915-28.862-11.915c-10.929,0-21.179,4.231-28.864,11.915L244.482,163.623l-34.521-34.521
	c7.715-35.204-3.03-72.338-28.623-97.93c-28.7-28.7-70.452-38.493-108.962-25.557c-2.68,0.901-4.704,3.123-5.351,5.876
	c-0.647,2.753,0.176,5.644,2.176,7.643l56.211,56.211l-10.439,39.622l-39.625,10.425l-56.21-56.209c-2-2-4.891-2.823-7.642-2.176
	c-2.752,0.646-4.975,2.669-5.877,5.349c-12.946,38.517-3.155,80.276,25.551,108.982c25.593,25.592,62.727,36.337,97.93,28.623
	l17.195,17.194c1.594,1.594,3.685,2.393,5.775,2.393c2.09,0,4.181-0.797,5.775-2.393c3.19-3.19,3.19-8.362,0-11.551l-20.437-20.437
	c-2.061-2.062-5.062-2.869-7.883-2.116c-30.932,8.259-64.194-0.653-86.804-23.264c-21.015-21.015-30.048-50.3-25.007-78.926
	l49.399,49.399c2.054,2.054,5.045,2.862,7.853,2.124l48.768-12.83c2.847-0.749,5.071-2.972,5.82-5.819l12.286-46.633l31.071-31.071
	c20.283,22.471,28.003,54.035,20.137,83.496c-0.753,2.817,0.054,5.821,2.116,7.883l37.764,37.765L48.636,359.469
	c-0.216,0.216-0.414,0.442-0.601,0.675c-0.047,0.059-0.088,0.122-0.134,0.182c-0.137,0.182-0.269,0.366-0.39,0.555
	c-0.046,0.072-0.087,0.146-0.13,0.22c-0.111,0.187-0.215,0.377-0.308,0.571c-0.038,0.079-0.075,0.159-0.111,0.24
	c-0.088,0.198-0.169,0.4-0.241,0.603c-0.017,0.05-0.042,0.098-0.059,0.148L0.489,501.18c-0.978,2.935-0.215,6.171,1.973,8.359
	c1.557,1.557,3.644,2.393,5.776,2.393c0.864,0,1.736-0.137,2.582-0.419l138.52-46.173c0.051-0.017,0.099-0.042,0.15-0.06
	c0.203-0.072,0.402-0.151,0.599-0.24c0.082-0.036,0.161-0.073,0.242-0.112c0.193-0.094,0.382-0.197,0.568-0.307
	c0.074-0.044,0.148-0.085,0.221-0.131c0.189-0.12,0.374-0.252,0.554-0.389c0.061-0.046,0.124-0.087,0.183-0.135
	c0.233-0.186,0.46-0.386,0.675-0.601L336.828,279.07l37.764,37.764c2.065,2.063,5.069,2.869,7.883,2.116
	c30.935-8.258,64.195,0.655,86.804,23.264c21.008,21.009,30.043,50.285,25.01,78.904l-49.398-49.399
	c-2.055-2.055-5.049-2.863-7.858-2.123l-48.767,12.848c-2.846,0.749-5.069,2.973-5.818,5.82l-12.268,46.632l-31.083,31.083
	c-20.289-22.472-28.013-54.039-20.146-83.504c0.751-2.817-0.054-5.821-2.115-7.883l-20.439-20.439c-3.191-3.19-8.362-3.19-11.552,0
	c-3.19,3.19-3.19,8.362,0,11.551l17.195,17.195c-7.715,35.204,3.03,72.339,28.622,97.93c0.669,0.669,1.344,1.324,2.027,1.972
	c0.169,0.205,0.347,0.404,0.539,0.596c0.325,0.325,0.673,0.607,1.035,0.865c19.847,18.112,45.202,27.737,71.236,27.736
	c11.386,0,22.906-1.842,34.147-5.62c2.68-0.901,4.703-3.123,5.349-5.877c0.646-2.752-0.177-5.644-2.176-7.642l-56.21-56.21
	l10.425-39.625l39.624-10.439l56.21,56.211c2.001,2,4.896,2.825,7.644,2.176c2.752-0.647,4.975-2.67,5.875-5.352
	C519.322,401.116,509.53,359.364,480.831,330.665z M90.882,17.712c24.785-4.36,50.056,1.839,70.028,17.22l-26.404,26.404
	L90.882,17.712z M146.758,446.04l-80.796-80.796l258.977-258.976l34.623,34.621L117.895,382.556c-3.19,3.19-3.19,8.362,0,11.551
	c1.594,1.594,3.685,2.393,5.775,2.393s4.181-0.797,5.775-2.393l241.665-241.664l17.311,17.31c1.595,1.594,3.686,2.393,5.776,2.393
	s4.181-0.797,5.776-2.393c3.19-3.19,3.19-8.362,0-11.551l-23.085-23.085c-0.003-0.003-40.4-40.4-40.4-40.4l19.231-19.231
	l80.795,80.795L146.758,446.04z M79.705,471.332L40.67,432.298l17.311-51.933l73.656,73.656L79.705,471.332z M407.67,23.537
	c4.598-4.598,10.746-7.13,17.312-7.13c6.564,0,12.713,2.532,17.311,7.13l46.172,46.173c9.546,9.546,9.546,25.077,0,34.623
	l-40.397,40.397l-80.795-80.795L407.67,23.537z M34.895,449.625l27.483,27.483l-41.224,13.742L34.895,449.625z M421.141,494.288
	c-24.785,4.362-50.061-1.83-70.039-17.209l26.414-26.414L421.141,494.288z"/>
<path d="M183.615,148.961c-3.19-3.19-8.362-3.19-11.551,0l-23.102,23.102c-3.19,3.19-3.19,8.362,0,11.551
	c1.594,1.594,3.685,2.393,5.775,2.393s4.181-0.797,5.775-2.393l23.102-23.102C186.805,157.323,186.805,152.151,183.615,148.961z"/>
<path d="M339.938,363.042l23.102-23.102c3.19-3.19,3.19-8.362,0-11.551c-3.191-3.19-8.362-3.19-11.552,0l-23.102,23.102
	c-3.19,3.19-3.19,8.362,0,11.551c1.595,1.594,3.687,2.393,5.776,2.393C336.253,365.435,338.343,364.636,339.938,363.042z"/>
</svg>